<svg width="512" height="512" viewBox="0 0 512 512" fill="none" xmlns="http://www.w3.org/2000/svg">
<circle cx="256" cy="256" r="215" fill="#616161"/>
<path d="M471 256C471 293.359 461.265 330.073 442.756 362.524C424.246 394.975 397.6 422.042 365.444 441.06C333.288 460.077 296.731 470.387 259.377 470.973C222.023 471.56 185.161 462.404 152.423 444.406C119.685 426.408 92.2023 400.191 72.6824 368.337C53.1625 336.484 42.2796 300.094 41.1061 262.753C39.9326 225.413 48.5091 188.411 65.9904 155.395C83.4716 122.379 109.254 94.4873 140.797 74.4695L256 256H471Z" fill="#2D2D2D"/>
<path d="M471 256C471 293.359 461.265 330.073 442.756 362.524C424.246 394.975 397.6 422.042 365.444 441.06C333.288 460.077 296.731 470.387 259.377 470.973C222.023 471.56 185.161 462.404 152.423 444.406L256 256H471Z" fill="#D9D9D9"/>
</svg>
