<svg width="512" height="512" viewBox="0 0 512 512" fill="none" xmlns="http://www.w3.org/2000/svg">
<path d="M304.132 211.081H206.917C198.633 211.081 191.917 204.365 191.917 196.081V91.607C191.917 56.534 220.451 28 255.524 28C290.597 28 319.131 56.534 319.131 91.607V196.081C319.132 204.365 312.416 211.081 304.132 211.081ZM221.917 181.081H289.132V91.607C289.132 73.076 274.056 58 255.525 58C236.994 58 221.918 73.076 221.918 91.607V181.081H221.917V181.081Z" fill="#EEBF00"/>
<path d="M255.524 28V58C274.055 58 289.131 73.076 289.131 91.607V181.081H255.523V211.081H304.131C312.415 211.081 319.131 204.365 319.131 196.081V91.607C319.132 56.534 290.598 28 255.524 28Z" fill="#DDB200"/>
<path d="M255.524 355.715C220.032 355.715 191.157 384.59 191.157 420.082C191.157 455.573 220.032 484.448 255.524 484.448C291.016 484.448 319.891 455.573 319.891 420.082C319.892 384.59 291.017 355.715 255.524 355.715Z" fill="#EEBF00"/>
<path d="M255.524 355.715V484.448C291.016 484.448 319.891 455.573 319.891 420.082C319.892 384.59 291.017 355.715 255.524 355.715Z" fill="#DDB200"/>
<path d="M425.542 364.882C398.177 324.684 383.712 277.731 383.712 229.101V226.628C383.712 155.945 326.207 98.44 255.524 98.44C184.841 98.44 127.336 155.945 127.336 226.628V229.101C127.336 277.731 112.871 324.684 85.5051 364.883C77.6771 376.384 76.8551 391.166 83.3591 403.462C89.8641 415.759 102.547 423.398 116.458 423.398H394.587C408.498 423.398 421.182 415.758 427.686 403.462C434.192 391.166 433.371 376.384 425.542 364.882Z" fill="#FFD422"/>
<path d="M425.542 364.882C398.177 324.684 383.712 277.731 383.712 229.101V226.628C383.712 155.945 326.207 98.44 255.524 98.44V423.398H394.588C408.499 423.398 421.183 415.758 427.687 403.462C434.192 391.166 433.371 376.384 425.542 364.882Z" fill="#EEBF00"/>
</svg>
